<svg xmlns="http://www.w3.org/2000/svg"
shape-rendering="geometricPrecision"
width="4000" height="4000" viewBox="0 0 737 737">
  <metadata>null</metadata>

<path d="
M 33.415 351.063
C 35.764 346.29 41.91 349.443 45.949 348.594
C 45.872 345.236 45.934 341.867 45.903 338.503
C 45.886 336.581 45.548 334.337 46.158 332.48
C 47.134 329.513 51.629 329.135 53.405 331.491
C 54.79 333.329 54.438 336.208 54.44 338.372
C 54.446 343.529 54.608 348.672 54.589 353.83
C 54.57 358.978 54.438 364.124 54.497 369.273
C 54.521 371.372 54.972 374.347 53.561 376.116
C 51.723 378.421 47.176 377.641 46.05 374.939
C 45.365 373.294 45.702 370.997 45.728 369.258
C 45.785 365.406 45.682 361.533 45.779 357.688
C 41.781 357.636 33.424 359.575 33.141 353.413
C 33.105 352.617 33.203 351.828 33.415 351.063 Z"
opacity="1" fill="rgb(26,154,216)" fill-rule="evenodd" />
<path d="
M 61.953 386.125
C 62.844 367.502 62.216 348.649 62.215 330
C 62.215 326.928 62.182 323.858 62.144 320.787
C 62.125 319.253 61.844 317.392 62.321 315.912
C 62.875 314.192 64.827 313.225 66.531 313.256
C 68.259 313.288 70.205 314.376 70.666 316.146
C 71.086 317.758 70.88 319.624 70.881 321.275
C 70.883 324.517 70.851 327.758 70.844 331
C 70.814 344.835 70.814 358.669 70.801 372.503
C 70.797 376.504 70.782 380.504 70.77 384.505
C 70.763 386.741 71.052 389.285 70.342 391.439
C 69.242 394.773 64.382 394.447 62.573 391.913
C 61.474 390.374 61.868 387.904 61.953 386.125 Z"
opacity="1" fill="rgb(27,150,218)" fill-rule="evenodd" />
<path d="
M 77.949 381.123
C 78.571 361.783 78.128 342.353 78.194 322.999
C 78.212 317.666 78.213 312.333 78.243 307
C 78.266 302.987 78.174 298.89 79.469 295.038
C 80.653 291.518 82.432 287.978 85.06 285.306
C 93.653 276.57 108.539 274.55 118.376 282.419
C 121.763 285.128 124.717 288.983 125.985 293.171
C 127.006 296.544 126.86 300.151 126.899 303.637
C 126.948 308.068 127.088 312.486 127.089 316.921
C 127.096 336.44 126.814 355.973 126.838 375.5
C 126.852 386.613 127.804 398.117 126.724 409.184
C 125.674 419.939 115.53 427.77 105.061 428.334
C 98.336 428.696 90.89 425.936 85.977 421.327
C 82.197 417.78 78.989 412.6 78.095 407.441
C 77.384 403.337 77.831 399.056 77.866 394.916
C 77.904 390.322 77.801 385.714 77.949 381.123 Z
M 86.599 366.132
C 86.589 366.291 86.578 366.45 86.567 366.609
C 86.99 367.044 89.235 365.041 89.844 364.704
C 91.902 363.564 94.263 362.795 96.577 362.407
C 103.879 361.181 113.292 362.408 118.573 368.129
C 118.954 366.786 118.318 364.311 118.326 362.826
C 118.353 358.219 118.384 353.611 118.353 349.004
C 118.34 347.198 118.933 343.854 118.12 342.257
C 114.562 341.026 109.96 340.026 107.693 336.703
C 106.275 334.625 106.521 330.792 109.371 330.043
C 111.399 329.51 113.694 330.573 115.423 331.546
C 116.168 331.965 117.492 333.06 118.334 333.019
C 118.343 329.608 118.414 326.193 118.395 322.782
C 118.389 321.503 118.715 319.497 118.121 318.345
C 112.156 314.51 104.201 311.734 100.672 305.107
C 99.118 302.189 98.869 294.25 104.269 295.451
C 107.367 296.14 107.606 300.161 109.164 302.338
C 110.574 304.308 112.958 305.357 114.91 306.687
C 115.984 307.42 117.145 308.411 118.334 308.923
C 118.437 304.365 119.335 298.343 117.001 294.221
C 110.884 283.423 96.088 284.294 89.454 294.01
C 85.33 300.05 86.738 308.589 86.757 315.506
C 86.764 318.339 86.756 321.173 86.753 324.006
C 86.752 325.195 86.415 326.89 86.967 327.957
C 90.533 329.218 94.92 328.994 98.001 331.431
C 100.114 333.102 100.288 337.538 97.356 338.557
C 94.034 339.711 89.968 337.869 86.733 337.299
C 86.287 344.336 86.701 351.458 86.678 358.507
C 86.67 360.987 86.941 363.68 86.599 366.132 Z
M 86.494 400.119
C 86.29 405.549 87.698 410.689 91.716 414.548
C 98.973 421.521 111.612 421.726 116.835 412.16
C 118.079 409.881 118.236 407.228 118.441 404.698
C 117.566 404.775 116.48 405.652 115.731 406.104
C 114.134 407.069 112.482 408.021 110.761 408.746
C 109.513 409.272 107.625 409.937 106.284 409.405
C 103.949 408.481 103.055 404.966 104.447 402.925
C 105.375 401.564 107.404 400.844 108.841 400.184
C 111.119 399.136 113.153 397.797 115.276 396.482
C 116.18 395.922 117.649 395.296 118.208 394.358
C 118.455 390.38 118.989 385.489 117.785 381.634
C 116.587 377.796 112.995 374.199 109.554 372.293
C 103.861 369.14 96.982 370.033 91.673 373.542
C 90.197 374.518 88.132 375.976 87.367 377.639
C 86.448 379.637 86.918 382.582 86.839 384.733
C 86.8 385.777 86.588 387.007 86.839 388.025
C 90.766 386.5 94.079 383.094 98.567 383.111
C 102.157 383.125 102.8 387.779 100.545 389.98
C 97.933 392.531 93.564 393.815 90.377 395.53
C 89.218 396.154 87.484 396.753 86.703 397.831
C 86.602 398.591 86.586 399.357 86.494 400.119 Z"
opacity="1" fill="rgb(27,152,218)" fill-rule="evenodd" />
<path d="
M 132.9 297.104
C 133.182 294.303 134.132 291.574 135.501 289.127
C 136.798 286.809 138.393 284.771 140.42 283.04
C 152.857 272.418 172.482 277.869 178.909 292.518
C 181.368 298.123 181.18 303.829 181.124 309.818
C 181.066 316.106 181.073 322.373 181.059 328.662
C 181.02 346.442 181.24 364.224 181.253 382.004
C 181.257 387.186 181.257 392.368 181.248 397.55
C 181.242 401.151 181.457 404.874 180.667 408.415
C 177.088 424.456 158.258 433.437 143.819 425.397
C 141.353 424.025 139.126 422.323 137.418 420.055
C 135.931 418.08 134.577 415.955 133.778 413.603
C 132.203 408.967 132.534 403.834 132.546 399.004
C 132.565 391.002 132.698 383.002 132.686 375
C 132.661 358.166 132.686 341.332 132.69 324.499
C 132.692 315.46 131.997 306.103 132.9 297.104 Z
M 140.964 384.111
C 140.757 387.447 140.279 392.278 141.411 395.459
C 143.89 397.718 147.665 398.97 150.691 400.346
C 152.108 400.989 153.756 401.581 154.767 402.831
C 156.497 404.97 155.341 409.087 152.37 409.25
C 148.426 409.466 144.617 406.511 141.166 404.983
C 141.185 407.703 141.306 410.173 142.708 412.581
C 146.484 419.066 155.375 421.3 162.158 418.449
C 167.726 416.109 171.707 411.046 172.54 405.087
C 172.849 402.871 173.221 399.323 172.136 397.288
C 168.506 393.621 162.083 393.491 158.636 389.439
C 156.216 386.593 158.092 382.779 161.789 383.024
C 164.592 383.211 167.374 385.203 169.838 386.414
C 170.45 386.715 172.229 388.076 172.788 387.953
C 172.83 385.493 172.651 382.964 172.467 380.511
C 172.381 379.361 172.487 378.175 171.799 377.179
C 170.671 375.545 168.877 374.279 167.223 373.228
C 157.218 366.871 142.922 371.984 140.964 384.111 Z
M 141.453 299.119
C 141.241 302.196 140.918 305.918 141.369 308.952
C 144.409 307.428 149.116 304.702 151.109 301.878
C 152.563 299.818 152.604 296.325 155.548 295.654
C 160.824 294.452 161.058 302.069 159.332 305.135
C 155.51 311.925 147.272 314.056 141.453 318.527
C 140.838 323.271 141.143 328.692 141.405 333.461
C 144.221 332.401 146.557 330.315 149.796 330.801
C 152.8 331.252 153.515 335.217 151.684 337.309
C 149.271 340.065 144.834 341.086 141.547 342.337
C 141.808 350.862 140.979 359.466 141.349 367.99
C 143.36 366.994 144.759 365.134 146.961 364.237
C 154.48 361.176 166.962 360.09 172.94 367.033
C 172.342 361.228 172.31 355.342 172.486 349.504
C 172.601 345.642 173.023 341.237 172.208 337.444
C 169.323 338.104 165.449 339.341 162.542 338.284
C 160.358 337.489 159.46 334.37 160.596 332.4
C 162.444 329.198 169.002 328.845 172.271 328.712
C 172.643 327.88 172.431 326.599 172.44 325.698
C 172.463 323.333 172.522 320.971 172.549 318.609
C 172.649 309.683 174.844 298.423 168.092 291.372
C 161.59 284.582 149.261 284.191 143.634 292.33
C 142.154 294.471 141.84 296.61 141.453 299.119 Z"
opacity="1" fill="rgb(31,152,217)" fill-rule="evenodd" />
<path d="
M 188.457 317.116
C 188.852 312.319 196.171 311.832 197.079 316.578
C 197.974 321.248 196.826 326.728 196.958 331.494
C 197.371 346.395 196.88 361.309 196.938 376.21
C 196.951 379.514 196.911 382.811 196.928 386.12
C 196.937 387.849 197.281 389.981 196.641 391.622
C 196.031 393.186 194.29 393.869 192.726 393.931
C 190.737 394.009 188.857 392.541 188.533 390.551
C 187.798 386.031 188.307 381.069 188.328 376.499
C 188.39 363.167 188.436 349.835 188.472 336.502
C 188.489 330.113 187.933 323.478 188.457 317.116 Z"
opacity="1" fill="rgb(31,151,217)" fill-rule="evenodd" />
<path d="
M 204.483 342.13
C 204.864 339.186 203.558 334.545 205.069 331.92
C 206.8 328.912 211.994 329.479 213.147 332.709
C 213.65 334.118 213.315 336.03 213.298 337.505
C 213.254 341.139 212.933 345.032 213.355 348.642
C 216.28 348.731 219.173 348.273 222.093 348.566
C 223.021 348.659 224.089 348.61 224.915 349.113
C 227.578 350.733 227.489 355.655 224.808 357.182
C 223.71 357.808 222.157 357.705 220.939 357.736
C 218.427 357.801 215.875 357.608 213.379 357.933
C 213.454 361.612 213.251 365.32 213.259 369.005
C 213.263 370.806 213.626 373.101 213.029 374.827
C 211.883 378.135 206.805 378.629 205.074 375.645
C 203.537 372.996 204.359 368.467 204.359 365.502
C 204.359 357.717 204.226 349.911 204.483 342.13 Z"
opacity="1" fill="rgb(32,155,220)" fill-rule="evenodd" />
<path d="
M 239.038 334.133
C 239.038 333.905 239.038 333.677 239.038 333.449
C 243 332.113 247.983 333.861 252.117 333.237
C 251.87 321.959 252.361 308.46 263.3 302.141
C 264.958 301.184 266.727 300.472 268.583 299.992
C 271.816 299.157 275.228 298.842 278.561 298.854
C 281.912 298.866 285.242 299.286 288.518 299.961
C 289.579 300.179 291.481 300.482 292.213 301.278
C 292.221 306.04 292.132 310.895 292.476 315.642
C 285.393 315.099 272.913 310.33 270.139 320.362
C 269.709 321.92 269.639 323.575 269.601 325.184
C 269.539 327.841 269.539 330.512 269.66 333.167
C 277.032 334.02 284.778 333.042 292.205 333.316
C 292.067 338.08 291.992 343.035 292.327 347.789
C 284.956 348.29 277.155 348.025 269.767 347.823
C 269.415 351.165 269.669 354.648 269.655 358.008
C 269.627 364.842 269.641 371.677 269.652 378.511
C 269.663 384.843 269.635 391.176 269.622 397.508
C 269.616 400.553 269.362 403.725 269.652 406.757
C 266.001 407.063 262.173 406.734 258.505 406.732
C 256.513 406.731 254.06 407.14 252.139 406.754
C 252.535 396.05 252.155 385.22 252.15 374.5
C 252.146 365.586 252.587 356.565 252.155 347.666
C 249.478 347.916 246.689 347.69 243.998 347.681
C 242.455 347.676 240.74 347.927 239.222 347.708
C 239.325 343.208 238.751 338.619 239.038 334.133 Z"
opacity="1" fill="rgb(253,252,254)" fill-rule="evenodd" />
<path d="
M 247.788 433.957
C 249.993 431.919 252.974 432.4 254.163 435.223
C 256.335 440.381 256.638 446.271 258.728 451.461
C 259.037 451.699 259.21 450.541 259.248 450.343
C 259.533 448.882 259.984 447.4 260.347 445.947
C 261.161 442.682 262.108 439.261 263.356 436.136
C 263.858 434.878 264.482 433.291 265.948 432.953
C 269.006 432.249 270.379 434.063 271.257 436.728
C 272.888 441.673 274.704 446.779 275.659 451.904
C 276.02 452.279 276.262 450.752 276.33 450.466
C 276.794 448.511 277.242 446.549 277.691 444.582
C 278.415 441.404 278.737 436.797 280.626 434.085
C 282.045 432.048 285.351 431.988 286.601 434.242
C 286.977 436.069 285.791 438.4 285.253 440.127
C 283.851 444.632 282.754 449.312 281.626 453.894
C 281.091 456.071 280.392 458.26 277.912 458.63
C 276.518 458.837 274.052 459.101 272.847 458.197
C 270.584 456.499 270.126 452.356 269.219 449.849
C 268.667 448.324 268.21 446.706 267.859 445.123
C 267.797 444.846 267.56 443.617 267.338 443.51
C 267.161 443.426 267.031 443.753 266.878 443.874
C 265.952 447.464 264.909 451.048 263.641 454.54
C 263.154 455.88 262.64 457.66 261.269 458.37
C 259.532 459.27 255.933 459.157 254.672 457.525
C 253.521 456.037 253.225 453.673 252.672 451.906
C 251.449 447.994 250.353 444.056 249.201 440.122
C 248.626 438.157 247.498 436.048 247.788 433.957 Z"
opacity="1" fill="rgb(251,249,252)" fill-rule="evenodd" />
<path d="
M 294.465 442.094
C 295.708 435.388 300.854 433.162 306.972 432.59
C 310.313 432.277 314.089 432.407 316.967 434.339
C 321.526 437.4 323.084 444.169 322.033 449.303
C 321.532 451.752 320.649 454.066 318.791 455.823
C 313.842 460.502 303.187 460.37 298.121 456.01
C 294.231 452.663 293.577 446.881 294.465 442.094 Z
M 300.899 443.063
C 300.131 445.919 300.632 450.012 303.018 451.999
C 306.818 455.162 314.307 453.523 315.699 448.638
C 316.523 445.745 315.927 441.48 313.536 439.469
C 309.49 436.065 302.294 437.877 300.899 443.063 Z"
opacity="1" fill="rgb(254,254,253)" fill-rule="evenodd" />
<path d="
M 303.898 304.573
C 305.231 299.093 312.563 300.721 316.757 300.724
C 318.59 300.726 320.879 300.544 322.471 301.631
C 325.571 303.749 324.782 308.27 324.754 311.51
C 324.742 313.002 324.803 314.581 324.45 316.042
C 323.144 321.442 314.997 320.429 310.879 319.985
C 309.24 319.809 307.264 319.858 305.866 318.849
C 302.904 316.71 303.606 311.741 303.645 308.532
C 303.661 307.235 303.589 305.842 303.898 304.573 Z"
opacity="1" fill="rgb(253,253,254)" fill-rule="evenodd" />
<path d="
M 305.455 333.291
C 311.276 333.17 317.095 333.236 322.918 333.229
C 323.676 334.065 323.109 336.885 323.114 338.006
C 323.132 342.673 323.13 347.34 323.141 352.007
C 323.171 364.173 323.174 376.34 323.188 388.506
C 323.196 394.457 322.576 400.822 323.274 406.727
C 318.912 407.091 314.378 406.776 310 406.771
C 309.059 406.769 305.914 407.297 305.302 406.768
C 305.75 399.746 305.313 392.54 305.308 385.501
C 305.295 368.109 304.99 350.675 305.455 333.291 Z"
opacity="1" fill="rgb(253,252,254)" fill-rule="evenodd" />
<path d="
M 331.483 434.621
C 331.565 434.143 331.619 433.682 331.73 433.209
C 333.111 431.994 336.757 432.668 338.497 432.65
C 342.35 432.61 347.29 431.937 350.454 434.65
C 354.824 438.399 353.582 447.286 348.287 449.483
C 348.585 452.181 354.626 454.489 352.886 457.617
C 347.719 462.306 344.214 453.451 341.26 450.777
C 340.339 450.457 339.444 450.517 338.486 450.485
C 337.677 452.64 338.589 455.18 337.659 457.336
C 336.568 459.866 332.159 459.491 331.692 456.741
C 331.407 455.061 331.751 453.327 331.579 451.637
C 331.017 446.143 331.157 440.134 331.483 434.621 Z
M 337.915 438.585
C 337.675 440.903 338.044 443.247 337.894 445.565
C 340.279 445.801 344.462 446.293 346.158 444.22
C 346.629 443.48 346.805 442.832 346.822 441.958
C 346.924 436.715 341.822 438.018 338.12 437.895
C 338.052 438.125 337.984 438.355 337.915 438.585 Z"
opacity="1" fill="rgb(253,252,252)" fill-rule="evenodd" />
<path d="
M 334.816 333.127
C 337.544 333.171 340.276 333.108 343.005 333.154
C 344.763 333.184 346.807 333.463 348.53 333.078
C 347.824 326.794 348.596 320.105 348.479 313.759
C 354.336 314.06 360.245 313.755 366.11 313.797
C 366.073 318.524 366.095 323.27 366.108 328.005
C 366.111 329.271 365.577 332.173 366.314 333.144
C 373.194 332.896 380.33 333.031 387.211 333.358
C 387.183 338.125 387.165 342.93 387.341 347.693
C 380.503 348.216 373.103 348.093 366.253 347.769
C 365.42 351.278 365.949 355.408 365.938 358.998
C 365.915 366.2 365.824 373.416 365.957 380.617
C 366.019 383.965 365.505 389.113 368.64 391.283
C 370.146 392.325 372.021 392.474 373.788 392.579
C 378.264 392.845 382.692 391.53 387.126 391.12
C 387.304 395.61 387.364 400.305 387.181 404.8
C 383.229 406.835 378.564 407.317 374.202 407.532
C 367.299 407.871 358.314 407.692 353.212 402.325
C 348.236 397.091 348.354 389.568 348.384 382.832
C 348.434 371.265 347.611 359.381 348.483 347.853
C 345.521 346.921 341.105 347.664 337.989 347.671
C 337.025 347.673 335.734 347.93 334.82 347.644
C 335.023 342.84 334.921 337.934 334.816 333.127 Z"
opacity="1" fill="rgb(253,252,255)" fill-rule="evenodd" />
<path d="
M 362.801 434.013
C 362.887 433.853 362.974 433.692 363.06 433.531
C 364.525 432.362 366.758 432.224 368.243 433.438
C 370.247 436.021 368.824 441.14 369.254 444.197
C 369.626 444.547 370.081 443.69 370.334 443.4
C 371.216 442.393 372.01 441.313 372.887 440.298
C 375.411 437.38 380.677 429.222 385.069 433.747
C 385.635 435.695 384.156 436.999 382.796 438.18
C 380.897 439.829 379.18 441.703 377.551 443.614
C 376.942 444.328 376.022 445.146 375.788 446.063
C 378.485 448.564 381.281 451.143 383.836 453.798
C 384.544 454.535 386.227 456.21 385.645 457.348
C 384.534 459.521 381.654 459.22 379.912 458.117
C 376.037 455.663 372.384 451.329 369.346 447.907
C 369.091 450.78 370.06 454.724 368.858 457.423
C 367.901 459.569 364.567 459.188 363.205 457.814
C 362.269 456.13 362.712 453.139 362.701 451.252
C 362.678 447.531 362.66 443.81 362.633 440.089
C 362.619 438.118 362.343 435.943 362.801 434.013 Z"
opacity="1" fill="rgb(252,251,253)" fill-rule="evenodd" />
<path d="
M 400.41 304.578
C 401.69 299.116 409.421 300.786 413.498 300.752
C 415.199 300.738 417.378 300.465 418.892 301.401
C 422.287 303.5 421.741 308.727 421.456 312.136
C 421.348 313.429 421.408 314.729 421.076 315.997
C 419.678 321.334 411.999 320.19 407.894 320.008
C 406.124 319.929 404.181 319.876 402.681 318.801
C 399.617 316.605 400.267 311.815 400.278 308.502
C 400.282 307.243 400.122 305.81 400.41 304.578 Z"
opacity="1" fill="rgb(253,252,254)" fill-rule="evenodd" />
<path d="
M 402.017 334.125
C 402.042 333.91 402.066 333.696 402.09 333.481
C 405.581 332.407 410.349 333.107 413.997 333.103
C 415.775 333.1 417.996 332.748 419.708 333.215
C 419.398 339.092 419.733 345.107 419.719 351.005
C 419.674 369.522 420.212 388.113 419.726 406.621
C 417.977 406.319 415.805 406.714 414.009 406.714
C 410.007 406.714 405.961 406.573 401.968 406.826
C 401.316 406.128 401.839 403.02 401.842 402.004
C 401.854 397.671 401.838 393.338 401.841 389.006
C 401.848 377.009 401.909 365.012 401.92 353.015
C 401.926 346.816 401.322 340.284 402.017 334.125 Z"
opacity="1" fill="rgb(252,251,254)" fill-rule="evenodd" />
<path d="
M 405.915 453.597
C 406 453.39 406.085 453.183 406.171 452.976
C 407.671 451.671 409.592 452.661 411.25 453.218
C 413.048 453.821 414.904 454.054 416.795 453.942
C 418.094 453.865 419.915 453.599 420.377 452.178
C 420.981 449.099 415.952 448.816 413.904 448.3
C 408.459 446.931 404.359 443.039 406.457 436.936
C 408.305 431.557 416.967 432.053 421.374 432.87
C 424.995 433.542 427.298 435.6 425.287 439.173
C 422.413 439.367 419.438 437.877 416.528 437.739
C 415.109 437.671 413.432 437.643 412.541 438.933
C 412.312 439.625 412.257 440.251 412.434 440.962
C 413.539 442.928 416.535 443.027 418.518 443.43
C 423.581 444.456 429.264 448.276 426.612 454.201
C 424.218 459.549 416.733 459.277 411.871 458.793
C 408.531 458.461 405.336 457.631 405.915 453.597 Z"
opacity="1" fill="rgb(254,254,254)" fill-rule="evenodd" />
<path d="
M 434.466 452.6
C 435.848 446.827 434.897 440.087 437.119 434.52
C 438.08 432.112 442.366 431.715 444.009 433.652
C 446.743 436.876 447.898 442.399 449.444 446.285
C 449.926 447.494 450.433 450.059 451.476 450.843
C 452.388 449.779 452.733 447.605 453.199 446.288
C 454.293 443.19 455.304 440.047 456.629 437.037
C 457.3 435.514 457.809 433.347 459.497 432.624
C 461.982 431.561 464.564 432.884 465.386 435.299
C 467.064 440.234 467.216 445.941 467.926 451.08
C 468.177 452.898 469.399 455.932 468.446 457.622
C 466.246 459.567 463.241 459.275 462.433 456.196
C 461.543 452.805 461.779 449.251 461.033 445.876
C 460.776 444.716 461.102 443.626 460.622 442.664
C 458.673 447.184 457.782 452.547 454.994 456.656
C 453.819 458.388 450.654 459.376 448.848 457.932
C 447.472 456.833 446.813 454.996 446.179 453.417
C 445.163 450.891 444.189 448.344 443.225 445.798
C 442.804 444.688 442.7 443.503 442.065 442.49
C 441.4 447.137 441.92 452.446 440.364 456.921
C 439.541 459.289 435.875 459.46 434.303 457.673
C 433.814 456.161 434.246 454.153 434.466 452.6 Z"
opacity="1" fill="rgb(254,254,255)" fill-rule="evenodd" />
<path d="
M 438.818 333.936
C 439.849 332.899 442.109 333.329 443.503 333.327
C 447.558 333.322 451.944 332.871 455.963 333.424
C 456.036 335.128 455.551 338.443 456.385 339.888
C 461.679 336.961 466.123 334.298 472.261 333.338
C 476.507 332.674 480.86 332.44 485.141 332.886
C 488.171 333.201 491.308 333.691 494.14 334.862
C 496.076 335.662 497.902 336.698 499.554 337.987
C 508.136 344.682 508.055 356.294 508.188 366.11
C 508.37 379.635 507.85 393.198 508.311 406.716
C 502.578 407.132 496.566 405.986 490.883 406.826
C 490.443 406.16 490.753 404.043 490.747 403.197
C 490.723 399.946 490.759 396.693 490.767 393.442
C 490.785 386.129 490.788 378.815 490.797 371.502
C 490.802 367.118 491.146 362.506 490.352 358.175
C 488.722 349.282 480.214 347.714 472.495 348.217
C 466.778 348.59 460.739 350.05 457.615 355.34
C 455.589 358.771 456.431 363.682 456.42 367.498
C 456.393 376.665 456.404 385.831 456.397 394.998
C 456.394 397.899 456.387 400.8 456.4 403.7
C 456.403 404.385 456.705 406.075 456.343 406.654
C 451.937 406.96 447.421 406.751 443.005 406.741
C 442.215 406.739 439.375 407.23 438.855 406.731
C 439.503 382.495 437.854 358.162 438.818 333.936 Z"
opacity="1" fill="rgb(253,252,255)" fill-rule="evenodd" />
<path d="
M 476.413 455.065
C 478.688 449.657 480.569 444.078 482.892 438.689
C 483.7 436.817 484.469 433.808 486.483 432.888
C 488.119 432.142 491.511 432.362 492.781 433.722
C 494.2 435.241 494.807 437.517 495.596 439.394
C 497.077 442.916 498.632 446.433 499.954 450.018
C 500.608 451.789 502.825 455.047 502.398 456.969
C 502.02 458.669 499.021 459.292 497.687 458.626
C 496.135 457.852 495.267 455.671 494.694 454.148
C 492.13 454.11 489.569 454.143 487.003 454.138
C 485.942 454.136 484.428 453.864 483.482 454.337
C 483.008 455.619 482.693 456.94 481.742 457.98
C 480.177 459.693 477.389 459.12 476.169 457.344
C 476.073 456.544 476.213 455.841 476.413 455.065 Z
M 485.51 448.626
C 485.431 448.766 485.353 448.906 485.274 449.046
C 485.539 449.287 486.983 449.159 487.395 449.149
C 489.36 449.102 491.321 449.112 493.285 449.131
C 492.81 447.291 491.567 445.306 490.8 443.548
C 490.229 442.239 489.941 440.614 489.044 439.505
C 487.725 442.439 486.546 445.583 485.51 448.626 Z"
opacity="1" fill="rgb(253,253,254)" fill-rule="evenodd" />
<path d="
M 510.899 434.597
C 511.941 431.624 516.464 432.726 518.966 432.676
C 522.456 432.606 526.438 432.066 529.476 434.182
C 533.04 436.665 533.868 443.039 531.545 446.638
C 530.605 448.094 529.154 449.043 527.641 449.802
C 529.07 452.063 532.152 454.287 532.713 456.959
C 532.222 458.647 529.121 459.267 527.709 458.685
C 524.653 457.423 523.173 453.17 521.101 450.851
C 519.856 450.469 518.567 450.509 517.301 450.763
C 517.241 452.674 517.665 455.859 516.622 457.553
C 515.547 459.299 512.574 459.373 511.249 457.982
C 510.254 456.028 510.719 452.907 510.716 450.761
C 510.707 445.448 510.3 439.877 510.899 434.597 Z
M 516.977 437.861
C 516.955 440.449 516.912 443.04 517.18 445.62
C 519.268 445.876 523.368 446.494 525.147 445.093
C 526.744 443.836 527.206 439.788 525.524 438.44
C 524.063 437.268 521.246 437.764 519.497 437.688
C 518.718 437.655 517.657 437.488 516.977 437.861 Z"
opacity="1" fill="rgb(253,253,254)" fill-rule="evenodd" />
<path d="
M 518.367 333.176
C 523.127 333.561 528.002 333.028 532.776 333.19
C 532.357 331.568 532.742 329.202 532.744 327.5
C 532.748 323.076 533.08 318.492 532.683 314.087
C 533.593 313.395 535.89 313.906 537.009 313.917
C 540.175 313.948 543.341 313.893 546.508 313.872
C 547.489 313.866 549.399 313.547 550.248 314.066
C 549.895 320.287 549.89 326.983 550.316 333.203
C 557.026 333.713 564.088 333.443 570.817 333.263
C 571.261 334.338 570.878 336.33 570.87 337.503
C 570.846 340.803 570.863 344.11 570.819 347.402
C 569.046 348.042 566.379 347.647 564.504 347.657
C 559.828 347.684 555.012 347.391 550.357 347.854
C 550.223 358.524 550.197 369.197 550.201 379.869
C 550.202 383.448 549.438 389.288 552.966 391.559
C 556.526 393.85 561.998 392.73 565.917 392.086
C 567.127 391.887 569.958 390.698 571.034 391.274
C 571.401 393.757 571.114 396.496 571.135 399.012
C 571.152 401.003 571.477 403.201 571.196 405.17
C 566.943 406.699 562.819 407.186 558.308 407.34
C 551.545 407.572 542.644 407.575 537.435 402.504
C 532.424 397.624 532.666 390.358 532.67 383.901
C 532.677 371.808 532.674 359.703 532.653 347.617
C 528.006 347.948 523.204 347.154 518.584 347.721
C 518.196 342.887 518.661 338.01 518.367 333.176 Z"
opacity="1" fill="rgb(253,252,254)" fill-rule="evenodd" />
<path d="
M 538.816 434.533
C 538.888 434.393 538.96 434.253 539.032 434.113
C 540.389 432.54 542.144 432.589 544.09 432.647
C 547.557 432.75 551.03 432.736 554.499 432.71
C 556.154 432.698 558.163 432.423 559.764 432.921
C 562.278 433.702 562.012 436.803 560.101 438.047
C 557.896 438.421 555.606 438.263 553.38 438.306
C 553.337 442.726 553.251 447.144 553.314 451.567
C 553.34 453.392 553.856 455.922 552.94 457.574
C 551.389 459.002 549.004 459.218 547.335 457.848
C 546.294 456.306 546.723 453.473 546.735 451.684
C 546.763 447.177 546.864 442.65 546.617 438.151
C 544.45 438.378 541.49 438.557 539.403 437.866
C 538.653 436.928 538.696 435.669 538.816 434.533 Z"
opacity="1" fill="rgb(253,252,253)" fill-rule="evenodd" />
<path d="
M 581.449 364.607
C 582.978 357.931 583.887 351.714 588.011 345.949
C 597.723 332.372 617.74 330.001 632.866 334.071
C 647.195 337.926 653.704 351.498 654.146 365.385
C 654.22 367.708 654.201 370.033 654.181 372.356
C 654.172 373.48 654.294 375.027 653.774 376.046
C 640.873 375.833 627.913 376.075 615.008 376.185
C 611.342 376.216 607.675 376.232 604.009 376.305
C 602.496 376.335 600.513 376.013 599.145 376.708
C 599.891 379.682 600.659 382.375 602.396 384.967
C 610.069 396.411 627.974 394.158 639.234 390.741
C 642.488 389.753 645.711 387.801 649.009 387.122
C 649.201 390.546 648.92 394.064 648.907 397.5
C 648.902 398.75 649.276 401.018 648.688 402.128
C 645.359 403.622 641.85 404.805 638.309 405.694
C 619.944 410.308 594.418 408.8 585.014 389.611
C 583.552 386.627 582.549 383.281 581.983 380.006
C 581.118 374.999 580.849 369.666 581.449 364.607 Z
M 599.453 362.09
C 599.338 362.731 599.275 363.365 599.345 364.013
C 604.296 363.483 609.53 363.938 614.509 363.943
C 621.958 363.949 629.452 363.655 636.895 363.83
C 637.117 362.318 636.82 360.792 636.506 359.315
C 634.603 350.363 626.001 346.27 617.403 346.875
C 610.827 347.338 604.599 350.404 601.427 356.394
C 600.457 358.225 599.992 360.109 599.453 362.09 Z"
opacity="1" fill="rgb(252,252,254)" fill-rule="evenodd" />
<path d="
M 668.666 300.189
C 674.289 300.212 680.302 299.749 685.879 300.466
C 686.704 301.244 686.108 304.225 686.112 305.285
C 686.131 310.358 686.102 315.431 686.086 320.504
C 686.031 337.838 686.104 355.173 686.104 372.507
C 686.104 376.673 686.007 380.851 686.119 385.015
C 686.174 387.067 686.297 389.441 687.859 390.981
C 689.132 392.238 690.96 392.495 692.668 392.568
C 696.251 392.721 700.016 392.051 703.521 391.352
C 703.974 394.438 703.406 398.065 703.437 401.223
C 703.448 402.365 703.8 404.194 703.322 405.245
C 692.685 409.27 674.698 409.193 670.126 396.428
C 668.65 392.308 668.78 387.813 668.776 383.503
C 668.77 377.836 668.767 372.17 668.753 366.503
C 668.719 352.503 668.665 338.502 668.696 324.502
C 668.713 316.441 669.137 308.233 668.666 300.189 Z"
opacity="1" fill="rgb(253,253,255)" fill-rule="evenodd" />

</svg>